<svg xmlns="http://www.w3.org/2000/svg" width="28" height="28" fill="none" viewBox="0 0 28 28"><path stroke="#5A5757" stroke-linecap="round" stroke-linejoin="round" stroke-width="2" d="M20.25 1.5H7.75C4.29822 1.5 1.5 4.29822 1.5 7.75V20.25C1.5 23.7018 4.29822 26.5 7.75 26.5H20.25C23.7018 26.5 26.5 23.7018 26.5 20.25V7.75C26.5 4.29822 23.7018 1.5 20.25 1.5Z"/><path stroke="#5A5757" stroke-linecap="round" stroke-linejoin="round" stroke-width="2" d="M19 13.2124C19.1543 14.2527 18.9766 15.3152 18.4922 16.2487C18.0078 17.1822 17.2414 17.9392 16.302 18.412C15.3626 18.8848 14.2981 19.0494 13.2597 18.8823C12.2214 18.7152 11.2622 18.225 10.5185 17.4813C9.7749 16.7377 9.28467 15.7785 9.11758 14.7402C8.9505 13.7018 9.11508 12.6373 9.58791 11.6979C10.0607 10.7585 10.8177 9.99206 11.7512 9.50769C12.6847 9.02332 13.7472 8.84562 14.7875 8.99989C15.8487 9.15724 16.8311 9.65172 17.5896 10.4103C18.3482 11.1688 18.8426 12.1512 19 13.2124Z"/><path stroke="#5A5757" stroke-linecap="round" stroke-linejoin="round" stroke-width="2" d="M20.875 7.125H20.8875"/></svg>