<svg width="30" height="22" viewBox="0 0 30 22" fill="none" xmlns="http://www.w3.org/2000/svg">
<path d="M28.175 4.025C28.0265 3.43176 27.7241 2.88821 27.2983 2.44926C26.8725 2.0103 26.3384 1.69148 25.75 1.525C23.6 1 15 1 15 1C15 1 6.4 1 4.25 1.575C3.66156 1.74148 3.12747 2.0603 2.70168 2.49926C2.27589 2.93821 1.97348 3.48176 1.825 4.075C1.43152 6.25694 1.23904 8.47039 1.25 10.6875C1.23597 12.9213 1.42846 15.1516 1.825 17.35C1.9887 17.9248 2.29788 18.4477 2.72268 18.8681C3.14747 19.2885 3.67352 19.5923 4.25 19.75C6.4 20.325 15 20.325 15 20.325C15 20.325 23.6 20.325 25.75 19.75C26.3384 19.5835 26.8725 19.2647 27.2983 18.8257C27.7241 18.3868 28.0265 17.8432 28.175 17.25C28.5654 15.0845 28.7579 12.8879 28.75 10.6875C28.764 8.45369 28.5715 6.22337 28.175 4.025V4.025Z" stroke="#5A5757" stroke-width="2" stroke-linecap="round" stroke-linejoin="round"/>
<path d="M12.1875 14.7751L19.375 10.6876L12.1875 6.6001V14.7751Z" stroke="#5A5757" stroke-width="2" stroke-linecap="round" stroke-linejoin="round"/>
</svg>
